<?xml version="1.0" encoding="iso-8859-1"?>
<!-- Generator: Adobe Illustrator 28.1.0, SVG Export Plug-In . SVG Version: 6.00 Build 0)  -->
<svg version="1.1" baseProfile="basic" id="Layer_1"
	 xmlns="http://www.w3.org/2000/svg" xmlns:xlink="http://www.w3.org/1999/xlink" x="0px" y="0px" viewBox="0 0 32 32"
	 xml:space="preserve">
<g>
	<linearGradient id="SVGID_1_" gradientUnits="userSpaceOnUse" x1="16" y1="2.8876" x2="16" y2="29.0118">
		<stop  offset="0" style="stop-color:#FF624A"/>
		<stop  offset="0.2471" style="stop-color:#FF5940"/>
		<stop  offset="0.6718" style="stop-color:#FD4224"/>
		<stop  offset="1" style="stop-color:#FC2C0A"/>
	</linearGradient>
	<circle style="fill:url(#SVGID_1_);" cx="16" cy="16" r="13"/>
	<g>
		
			<linearGradient id="SVGID_00000009569414312528984510000014278449989099195269_" gradientUnits="userSpaceOnUse" x1="16" y1="3" x2="16" y2="29">
			<stop  offset="0" style="stop-color:#000000;stop-opacity:0.02"/>
			<stop  offset="1" style="stop-color:#000000;stop-opacity:0.15"/>
		</linearGradient>
		<path style="fill:url(#SVGID_00000009569414312528984510000014278449989099195269_);" d="M16,3.5c6.893,0,12.5,5.607,12.5,12.5
			S22.893,28.5,16,28.5S3.5,22.893,3.5,16S9.107,3.5,16,3.5 M16,3C8.82,3,3,8.82,3,16s5.82,13,13,13s13-5.82,13-13S23.18,3,16,3
			L16,3z"/>
	</g>
</g>
<g>
	<path style="fill:#FFFFFF;" d="M17.414,16l3.288-3.288c0.391-0.391,0.391-1.024,0-1.414c-0.391-0.391-1.024-0.391-1.414,0
		L16,14.586l-3.288-3.288c-0.391-0.391-1.024-0.391-1.414,0c-0.391,0.391-0.391,1.024,0,1.414L14.586,16l-3.288,3.288
		c-0.391,0.391-0.391,1.024,0,1.414c0.391,0.391,1.024,0.391,1.414,0L16,17.414l3.288,3.288c0.391,0.391,1.024,0.391,1.414,0
		c0.391-0.391,0.391-1.024,0-1.414L17.414,16z"/>
	<g style="opacity:0.2;">
		
			<linearGradient id="SVGID_00000064315302766509873450000006387598705898069898_" gradientUnits="userSpaceOnUse" x1="16" y1="10.5049" x2="16" y2="21.4951">
			<stop  offset="0" style="stop-color:#000000;stop-opacity:0.1"/>
			<stop  offset="1" style="stop-color:#000000;stop-opacity:0.7"/>
		</linearGradient>
		<path style="fill:url(#SVGID_00000064315302766509873450000006387598705898069898_);" d="M19.995,11.005
			c0.256,0,0.512,0.098,0.707,0.293c0.391,0.391,0.391,1.024,0,1.414L17.414,16l3.288,3.288c0.391,0.391,0.391,1.024,0,1.414
			c-0.195,0.195-0.451,0.293-0.707,0.293s-0.512-0.098-0.707-0.293L16,17.414l-3.288,3.288c-0.195,0.195-0.451,0.293-0.707,0.293
			s-0.512-0.098-0.707-0.293c-0.39-0.391-0.39-1.024,0-1.414L14.586,16l-3.288-3.288c-0.39-0.391-0.39-1.024,0-1.414
			c0.195-0.195,0.451-0.293,0.707-0.293s0.512,0.098,0.707,0.293L16,14.586l3.288-3.288C19.483,11.102,19.739,11.005,19.995,11.005
			 M19.995,10.505c-0.401,0-0.777,0.156-1.061,0.439L16,13.879l-2.934-2.934c-0.283-0.283-0.66-0.439-1.061-0.439
			c-0.401,0-0.777,0.156-1.061,0.439c-0.585,0.585-0.585,1.536,0,2.121L13.879,16l-2.934,2.934c-0.585,0.585-0.585,1.536,0,2.121
			c0.283,0.283,0.66,0.439,1.061,0.439c0.401,0,0.777-0.156,1.061-0.439L16,18.121l2.934,2.934c0.283,0.283,0.66,0.439,1.061,0.439
			c0.401,0,0.777-0.156,1.061-0.439c0.585-0.585,0.585-1.537,0-2.121L18.121,16l2.934-2.935c0.585-0.585,0.585-1.536,0-2.121
			C20.772,10.661,20.396,10.505,19.995,10.505L19.995,10.505z"/>
	</g>
</g>
</svg>