<svg xmlns="http://www.w3.org/2000/svg" version="1.1" xmlns:xlink="http://www.w3.org/1999/xlink" xmlns:svgjs="http://svgjs.dev/svgjs" width="2000" height="103" viewBox="0 0 2000 303"><g transform="matrix(1,0,0,1,-1.2121212121212466,0.2895862798929443)"><svg viewBox="0 0 396 60" data-background-color="#0074d9" preserveAspectRatio="xMidYMid meet" height="303" width="2000" xmlns="http://www.w3.org/2000/svg" xmlns:xlink="http://www.w3.org/1999/xlink"><g id="tight-bounds" transform="matrix(1,0,0,1,0.2400000000000091,-0.05734381780058584)"><svg viewBox="0 0 395.52 60.11468763560117" height="60.11468763560117" width="395.52"><g><svg viewBox="0 0 496.5744301273096 75.4738489960808" height="60.11468763560117" width="395.52"><g transform="matrix(1,0,0,1,0,10.430900982815803)"><svg viewBox="0 0 395.52 54.6120470304492" height="54.6120470304492" width="395.52"><g id="textblocktransform"><svg viewBox="0 0 395.52 54.6120470304492" height="54.6120470304492" width="395.52" id="textblock"><g><svg viewBox="0 0 395.52 54.6120470304492" height="54.6120470304492" width="395.52"><g transform="matrix(1,0,0,1,0,0)"><svg width="395.52" viewBox="2.8 -37.1 328.69 45.800000000000004" height="54.6120470304492" data-palette-color="#fff6f0"><g class="wordmark-text-0" data-fill-palette-color="primary" id="text-0"><path d="M23.6-24.55L23.6-24.55 23.7-15.3Q23.7-14.35 24.75-14.35L24.75-14.35Q27.85-14.35 29.63-16.07 31.4-17.8 31.4-20.15 31.4-22.5 29.73-24.2 28.05-25.9 24.8-25.9L24.8-25.9Q23.6-25.9 23.6-24.55ZM36.7-9.6L36.7-9.6Q37.65-8.6 43.45-2.05L43.45-2.05Q43.8-1.6 43.8-1.25L43.8-1.25Q43.8 0.05 42.65 0.05L42.65 0.05Q40 0.1 37.33 0.1 34.65 0.1 32 0.05L32 0.05Q30.55 0.05 29.35-1.1L29.35-1.1 25.05-7.6Q24.8-7.9 24.45-8L24.45-8Q23.65-8.3 23.65-7.35L23.65-7.35 23.65-2.25Q23.65-0.1 20.83 0.05 18 0.2 14.65 0.2 11.3 0.2 6.55-0.05L6.55-0.05Q5.1-0.15 4.23-1.05 3.35-1.95 3.2-3.1L3.2-3.1Q2.8-7.5 2.8-16.93 2.8-26.35 3.1-30.65 3.4-34.95 7.45-35L7.45-35Q11.25-35.05 17.8-35.05 24.35-35.05 28.65-34.95L28.65-34.95Q34.85-34.85 38.8-30.35 42.75-25.85 42.75-20.2L42.75-20.2Q42.75-16.9 41.23-14.1 39.7-11.3 36.7-9.6ZM63.45-12.5Q63.45-6.9 66.4-6.9 69.35-6.9 69.35-12.5L69.35-12.5Q69.35-15.05 68.75-16.43 68.15-17.8 66.4-17.8 64.65-17.8 64.05-16.43 63.45-15.05 63.45-12.5L63.45-12.5ZM85.05-12.5Q85.05 1.1 66.4 1.1 47.75 1.1 47.75-12.5L47.75-12.5Q47.75-18.95 52.5-22.5 57.25-26.05 66.4-26.05 75.55-26.05 80.3-22.5 85.05-18.95 85.05-12.5L85.05-12.5ZM106.85-12.6L106.85-12.6 106.65-2.95Q106.65 3.95 101.1 6.45L101.1 6.45Q96.15 8.7 87.2 8.7L87.2 8.7Q85.6 8.7 85.07 7.73 84.55 6.75 84.55 4.38 84.55 2 86.4 1.8L86.4 1.8Q91 1.25 91-3.1L91-3.1 90.95-22Q90.95-23.7 91.55-24.5 92.15-25.3 93.9-25.3L93.9-25.3 103.65-25.3Q105.4-25.3 105.97-24.53 106.55-23.75 106.65-22L106.65-22Q106.85-17.75 106.85-12.6ZM99.3-37.1L99.3-37.1Q102.6-37.1 104.27-35.77 105.95-34.45 105.95-32.15L105.95-32.15Q105.95-26.75 98.75-26.75L98.75-26.75Q95.85-26.75 93.8-28 91.75-29.25 91.75-31.75L91.75-31.75Q91.75-37.1 99.3-37.1Z" fill="#fff6f0" data-fill-palette-color="primary"></path><path d="M150.7-22.95L150.7-22.95 150.65-12.95Q150.65-10.75 151.32-9.68 152-8.6 154.15-8.6L154.15-8.6 166.8-8.6Q169.1-8.55 169.1-5.1L169.1-5.1Q169.1-2.45 168.45-1.25 167.8-0.05 165.8 0L165.8 0Q158.75 0.2 151.85 0.2 144.95 0.2 134.25 0.1L134.25 0.1Q132.45 0.1 131.32-0.78 130.2-1.65 130.05-3.2L130.05-3.2Q129.65-7.55 129.65-16.93 129.65-26.3 129.87-29.58 130.1-32.85 130.8-33.93 131.5-35 133.55-35L133.55-35 146.95-35Q149.05-35 149.72-33.9 150.4-32.8 150.55-30.35 150.7-27.9 150.7-22.95ZM179.65-23.93Q181.95-25.05 184.37-25.55 186.8-26.05 190.37-26.05 193.95-26.05 197.2-25.18 200.45-24.3 202.05-22.8L202.05-22.8Q204.85-20.05 204.85-16.35L204.85-16.35Q204.85-10.55 195.05-10.55L195.05-10.55Q191.6-10.55 187.9-11.2L187.9-11.2Q188.05-7.9 189.12-6.55 190.2-5.2 192.95-5.2 195.7-5.2 197.5-5.8 199.3-6.4 200.4-7.03 201.5-7.65 202.27-7.65 203.05-7.65 203.6-6.95L203.6-6.95Q204.45-6.05 204.45-4.48 204.45-2.9 203.82-2.33 203.2-1.75 201.85-1.2L201.85-1.2Q197.1 0.8 188.35 0.8L188.35 0.8Q181.1 0.8 176.42-2.68 171.75-6.15 171.75-12.05L171.75-12.05Q171.75-14.9 172.8-17.28 173.85-19.65 175.6-21.23 177.35-22.8 179.65-23.93ZM191.25-20.35L191.25-20.35Q188.2-20.35 187.95-15.4L187.95-15.4Q190.35-15.2 190.45-15.2L190.45-15.2Q193.75-15.2 193.75-17.4L193.75-17.4Q193.75-20.35 191.25-20.35ZM246.04-0.05L239.14 0.05 233.64 0Q231.74 0 230.99-1.15L230.99-1.15 226.34-8.55Q225.94-8.85 225.87-8.78 225.79-8.7 225.77-7.08 225.74-5.45 225.49-2.15L225.49-2.15Q225.39-1.35 224.69-0.7 223.99-0.05 222.32 0.05 220.64 0.15 218.27 0.15 215.89 0.15 212.99 0L212.99 0Q211.79-0.05 211.12-0.68 210.44-1.3 210.34-2.15L210.34-2.15Q209.84-8.25 209.84-18.45 209.84-28.65 210.24-33.3L210.24-33.3Q210.39-35 210.92-35.77 211.44-36.55 213.09-36.55L213.09-36.55 222.69-36.55Q224.34-36.55 224.89-35.77 225.44-35 225.59-33.3L225.59-33.3Q225.89-28.95 225.89-18.7L225.89-18.7Q225.89-17.55 226.29-17.55L226.29-17.55Q226.54-17.55 226.84-17.85L226.84-17.85 233.39-23.85Q234.24-24.6 234.79-24.83 235.34-25.05 236.34-25.05L236.34-25.05 243.64-25.05Q244.29-25.05 244.59-24.2L244.59-24.2Q244.69-24 244.69-23.6 244.69-23.2 244.19-22.7L244.19-22.7 237.24-16.6Q236.84-16.2 237.24-15.75L237.24-15.75Q241.99-10.15 247.34-2.65L247.34-2.65Q247.89-1.9 247.89-1.3L247.89-1.3Q247.89-0.05 246.04-0.05L246.04-0.05ZM252.74-2.35L252.74-2.35 252.64-18.7Q252.64-26.2 252.79-33.3L252.79-33.3Q252.84-34.95 253.42-35.75 253.99-36.55 255.64-36.55L255.64-36.55 265.24-36.55Q266.89-36.55 267.47-35.77 268.04-35 268.17-32.98 268.29-30.95 268.39-22.15L268.39-22.15Q272.29-26.1 277.77-26.1 283.24-26.1 286.39-23.4 289.54-20.7 289.62-15.95 289.69-11.2 289.69-7.45 289.69-3.7 289.64-2.4 289.59-1.1 288.97-0.53 288.34 0.05 286.54 0.05L286.54 0.05 276.94 0.15Q275.34 0.15 274.72-0.43 274.09-1 274.09-2.15L274.09-2.15 274.14-14.35Q274.14-15.85 273.39-16.6 272.64-17.35 271.52-17.35 270.39-17.35 269.49-16.57 268.59-15.8 268.54-14.4L268.54-14.4 268.24-2.35Q268.19-1.4 267.34-0.75 266.49-0.1 265.27 0 264.04 0.1 262.54 0.1L262.54 0.1 255.54 0Q254.59 0 253.67-0.68 252.74-1.35 252.74-2.35ZM309.89-12.5Q309.89-6.9 312.84-6.9 315.79-6.9 315.79-12.5L315.79-12.5Q315.79-15.05 315.19-16.43 314.59-17.8 312.84-17.8 311.09-17.8 310.49-16.43 309.89-15.05 309.89-12.5L309.89-12.5ZM331.49-12.5Q331.49 1.1 312.84 1.1 294.19 1.1 294.19-12.5L294.19-12.5Q294.19-18.95 298.94-22.5 303.69-26.05 312.84-26.05 321.99-26.05 326.74-22.5 331.49-18.95 331.49-12.5L331.49-12.5Z" fill="#39cccc" data-fill-palette-color="accent"></path></g></svg></g></svg></g></svg></g></svg></g><g transform="matrix(1,0,0,1,408.4125936147603,0)"><svg viewBox="0 0 88.1618365125493 75.4738489960808" height="75.4738489960808" width="88.1618365125493"><g><svg xmlns="http://www.w3.org/2000/svg" xmlns:xlink="http://www.w3.org/1999/xlink" version="1.1" x="0" y="0" viewBox="14.405999999999985 18.868194512701614 73.68655363762392 63.08180548729839" enable-background="new 0 0 100 100" xml:space="preserve" height="75.4738489960808" width="88.1618365125493" class="icon-icon-0" data-fill-palette-color="accent" id="icon-0"><path fill="#39cccc" d="M84.896 19.566c-2.92-1.55-6.55-0.43-8.1 2.49l-0.28 0.53-0.39 0.73-1.47 2.79-0.19 0.36-6.86 13.05h-0.01l-1.68 3.2-5.38 10.21-2.2 4.18-2.91 5.53-1.39 11.57h-39.63v3h40.43c0.12 0 0.23-0.02 0.35-0.04 0.24-0.02 0.48-0.1 0.67-0.27l10.021-8.73c0.13-0.11 0.229-0.25 0.3-0.39l6.74-12.73 2.52-4.76 1.41-2.68 2.101-3.96 1.43-2.7h-0.01l0.739-1.38 3.86-7.31 1.59-3.01 0.721-1.35 0.119-0.23C88.947 24.746 87.817 21.106 84.896 19.566zM59.567 70.416l-2.461-1.3 0.61-5.06c0.3 0.05 0.61 0.12 0.93 0.21 0.011 0 0.021 0.01 0.04 0.01 0.62 0.17 1.311 0.45 2.091 0.87 0.8 0.42 1.42 0.83 1.909 1.25 0.011 0.01 0.021 0.02 0.03 0.02 0.25 0.21 0.48 0.43 0.69 0.66L59.567 70.416zM80.367 35.726l-2.32 4.39-3.57 6.75-1.42 2.68-8.2 15.51c-0.189-0.18-0.38-0.35-0.59-0.52-0.63-0.54-1.39-1.05-2.34-1.55s-1.8-0.85-2.6-1.06c-0.25-0.08-0.5-0.14-0.75-0.2l0.35-0.66 4.75-8.98 2.76-5.21 0.885-1.68 3.689-6.975 0.526-0.995 0.359-0.68 2.511-4.73c3.41 0.37 5.43 2.13 6.35 3.18L80.367 35.726zM81.247 34.056c-1.08-1.14-3.12-2.74-6.34-3.19l0.43-0.81c3.44 0.4 5.44 2.23 6.31 3.26L81.247 34.056zM85.237 26.526l-0.311 0.6h-0.01l-0.311 0.59-0.279 0.53-0.15 0.28-0.76 1.43-0.32 0.61-0.729 1.38-0.221 0.42c-1.05-1.13-3.079-2.77-6.31-3.26l0.04-0.08h-0.01l0.1-0.2 1.19-2.25 0.72-1.37 0.72-1.37 0.19-0.36 0.02 0.01 0.15-0.28c0.92-1.74 3.07-2.4 4.8-1.48C85.487 22.636 86.157 24.796 85.237 26.526z" data-fill-palette-color="accent"></path><path fill="#39cccc" d="M49.43 81.67c-0.1 0.12-0.21 0.22-0.33 0.28L49.43 81.67z" data-fill-palette-color="accent"></path></svg></g></svg></g></svg></g><defs></defs></svg><rect width="395.52" height="60.11468763560117" fill="none" stroke="none" visibility="hidden"></rect></g></svg></g></svg>