<?xml version="1.0" standalone="no"?>
<!DOCTYPE svg PUBLIC "-//W3C//DTD SVG 20010904//EN"
 "http://www.w3.org/TR/2001/REC-SVG-20010904/DTD/svg10.dtd">
<svg version="1.0" xmlns="http://www.w3.org/2000/svg"
 width="196.000000pt" height="196.000000pt" viewBox="0 0 196.000000 196.000000"
 preserveAspectRatio="xMidYMid meet">
<metadata>
Created by potrace 1.14, written by Peter Selinger 2001-2017
</metadata>
<g transform="translate(0.000000,196.000000) scale(0.100000,-0.100000)"
fill="#000000" stroke="none">
<path d="M0 980 l0 -980 980 0 980 0 0 980 0 980 -980 0 -980 0 0 -980z m1267
611 c124 -58 233 -195 249 -315 8 -57 10 -59 70 -89 57 -29 113 -86 145 -149
30 -59 37 -168 15 -236 -22 -65 -93 -145 -158 -178 -60 -30 -146 -43 -158 -24
-12 20 0 40 24 40 46 0 123 31 164 66 54 46 83 102 89 174 16 168 -119 299
-295 288 -55 -3 -57 -2 -57 22 0 23 4 25 59 28 l58 3 -6 42 c-18 111 -105 226
-212 278 -82 41 -190 50 -276 25 -63 -18 -171 -86 -195 -123 -15 -22 -14 -25
4 -46 33 -35 54 -85 56 -130 2 -36 -1 -42 -20 -45 -19 -3 -23 3 -28 42 -23
150 -212 213 -311 104 -34 -37 -54 -84 -54 -127 0 -34 -4 -43 -27 -55 -79 -41
-145 -148 -151 -242 -10 -153 97 -283 248 -301 49 -6 65 -19 50 -43 -11 -18
-95 -7 -154 19 -60 26 -132 94 -164 156 -24 44 -27 61 -27 150 0 86 3 106 24
145 34 64 76 116 116 140 28 17 35 28 35 54 0 51 46 132 94 165 71 49 167 62
227 30 12 -6 26 3 55 32 96 99 202 140 344 136 83 -2 104 -7 167 -36z m25
-639 c94 -95 98 -86 -152 -337 l-210 -211 -105 -28 c-58 -15 -108 -32 -111
-37 -3 -5 -14 -9 -25 -9 -20 0 -26 28 -10 46 5 5 21 54 36 109 l26 100 212
213 c252 252 244 249 339 154z"/>
<path d="M1145 920 l-39 -40 54 -55 54 -55 43 42 c24 23 43 47 43 52 0 17 -83
96 -100 96 -9 0 -34 -18 -55 -40z"/>
<path d="M932 707 l-132 -132 55 -55 55 -55 135 135 135 135 -52 52 c-29 29
-55 53 -58 53 -3 0 -65 -60 -138 -133z"/>
<path d="M775 508 c-22 -70 -26 -90 -23 -94 3 -2 28 3 58 12 l53 16 -39 39
c-43 44 -43 44 -49 27z"/>
</g>
</svg>
